{"title":"James.Corden.2015.05.20.Halle.Berry.Justin.Bieber.720p.x265.mkv","uid":11952251,"size":693423274,"categoryP":"video","categoryS":"hd___tv_shows","magnet":"?xt=urn:btih:2d9ae0f8190d5b796a243ddf630a662a4193497e&amp;dn=James.Corden.2015.05.20.Halle.Berry.Justin.Bieber.720p.x265.mkv&amp;tr=udp%3A%2F%2Ftracker.openbittorrent.com%3A80&amp;tr=udp%3A%2F%2Fopen.demonii.com%3A1337&amp;tr=udp%3A%2F%2Ftracker.coppersurfer.tk%3A6969&amp;tr=udp%3A%2F%2Fexodus.desync.com%3A6969","seeders":0,"leechers":1,"uploader":"zx9000","files":1,"time":1432206941,"description":"This is x265 NOT x264\nWorks great with the newer versions of VLC and potplayer\nOr your own computer media player with updated codecs\n\n----------------------\n\n\nBy Request = The Thank You Dave Episode\n\nJames.Corden.2015.05.20.Halle.Berry.Justin.Bieber.720p.HDTV.x265.mkv\n\nWith Halle Berry, Jeffrey Dean Morgan, Justin Bieber\n\n\n\nVideo\n\nFormat                                   : HEVC\nFormat/Info                              : High Efficiency Video Coding\nFormat profile                           : &lt;a class=&quot;__cf_email__&quot; href=&quot;/cdn-cgi/l/email-protection&quot; data-cfemail=&quot;bdf0dcd4d3fdf18e938c&quot;&gt;[email&amp;#160;protected]&lt;/a&gt;&lt;script data-cfhash='f9e31' type=&quot;text/javascript&quot;&gt;\n/* &lt;![CDATA[ */!function(){try{var t=&quot;currentScript&quot;in document?document.currentScript:function(){for(var t=document.getElementsByTagName(&quot;script&quot;),e=t.length;e--;)if(t[e].getAttribute(&quot;data-cfhash&quot;))return t[e]}();if(t&amp;&amp;t.previousSibling){var e,r,n,i,c=t.previousSibling,a=c.getAttribute(&quot;data-cfemail&quot;);if(a){for(e=&quot;&quot;,r=parseInt(a.substr(0,2),16),n=2;a.length-n;n+=2)i=parseInt(a.substr(n,2),16)^r,e+=String.fromCharCode(i);e=document.createTextNode(e),c.parentNode.replaceChild(e,c)}t.parentNode.removeChild(t);}}catch(u){}}()/* ]]&gt; */&lt;/script&gt;\nCodec ID                                 : V_MPEGH/ISO/HEVC\nDuration                                 : 39mn 39s\nBit rate                                 : 1900 Kbps\nWidth                                    : 1 280 pixels\nHeight                                   : 720 pixels\nDisplay aspect ratio                     : 16:9\nFrame rate mode                          : Constant\nFrame rate                               : 29.970 fps\nColor space                              : YUV\nChroma subsampling                       : 4:2:0\nBit depth                                : 8 bits\nBits/(Pixel*Frame)                       : 0.069\nStream size                              : 539 MiB (82%)\nWriting library                          : x265 1.6+332\nEncoding settings                        : x265 preset = Slow\n\nAudio\n\nFormat                                   : AC-3\nBit rate mode                            : Constant\nBit rate                                 : 384 Kbps\nChannel(s)                               : 6 channels\nChannel positions                        : Front: L C R, Side: L R, LFE\nSampling rate                            : 48.0 KHz\nBit depth                                : 16 bits\nCompression mode                         : Lossy\nStream size                              : 109 MiB (16%)\nLanguage                                 : English","torrent":{"xt":"urn:btih:2d9ae0f8190d5b796a243ddf630a662a4193497e","amp;dn":"James.Corden.2015.05.20.Halle.Berry.Justin.Bieber.720p.x265.mkv","amp;tr":["udp%3A%2F%2Ftracker.openbittorrent.com%3A80","udp%3A%2F%2Fopen.demonii.com%3A1337","udp%3A%2F%2Ftracker.coppersurfer.tk%3A6969","udp%3A%2F%2Fexodus.desync.com%3A6969"],"infoHash":"2d9ae0f8190d5b796a243ddf630a662a4193497e","infoHashBuffer":{"type":"Buffer","data":[45,154,224,248,25,13,91,121,106,36,61,223,99,10,102,42,65,147,73,126]},"announce":[],"urlList":[]}}